<?xml version="1.0" encoding="UTF-8"?><svg id="Layer_1" xmlns="http://www.w3.org/2000/svg" xmlns:xlink="http://www.w3.org/1999/xlink" viewBox="0 0 1481.66 386.49"><defs><style>.cls-1{fill:url(#linear-gradient-2);}.cls-2{fill:url(#linear-gradient);}.cls-3{fill:#fff;}</style><linearGradient id="linear-gradient" x1="244.69" y1="178.14" x2="244.69" y2="77.23" gradientUnits="userSpaceOnUse"><stop offset="0" stop-color="#bdc5cf"/><stop offset="1" stop-color="#6d737a"/></linearGradient><linearGradient id="linear-gradient-2" x1="243.99" y1="356.44" x2="243.99" y2="129.44" gradientUnits="userSpaceOnUse"><stop offset=".15" stop-color="#ff4602"/><stop offset=".85" stop-color="#ff9a00"/></linearGradient></defs><path class="cls-2" d="M244.69,77.23l-169.28,82.08c62.43,38.76,112.53,9.97,141.57-17.49.02-.04.04-.06.06-.06,17.19-16.29,27-32.09,27.61-33.08.02-.04.04-.06.04-.06,0,0,.02.02.04.06.61.99,10.42,16.79,27.61,33.08.02,0,.04.02.06.06,29.04,27.46,79.14,56.25,141.57,17.49l-169.28-82.08Z"/><path class="cls-3" d="M281.4,73.52v-5.87c0-20.77-16.83-37.6-37.6-37.6s-37.6,16.83-37.6,37.6v5.48L30.98,33.84c12.79,42.15,47.26,76.4,93.32,86.73,30.47,6.82,60.85,2.02,86.46-11.49,4.4-2.31,8.67-4.88,12.77-7.7l21.13-14.16,21.13,14.16c.4.28.82.52,1.23.79,1.34.9,2.69,1.77,4.06,2.62.6.37,1.2.73,1.8,1.09,1.7,1.01,3.43,1.98,5.18,2.92.17.09.33.19.5.28h0c25.63,13.5,56.01,18.32,86.49,11.49,46.06-10.33,80.53-44.58,93.32-86.72l-176.98,39.68Z"/><path class="cls-1" d="M268.84,311.09c-4.54,5.93-7.79,9.45-8.14,9.81.29-25.86-3.51-34.7-16.86-50.02-.04-.02-.08-.02-.11-.04-24.56,42.71-16.79,82.38-16.14,85.41,0,.04.04.08.04.1.02.06.02.1.02.1-32.32-50.92-42.72-90.71-41.77-121.35.21-7.15,1.31-13.78,2.36-20.01,2.73-16.39,10.12-29.8,18.69-40.38.46-.55.93-1.11,1.39-1.68l36.36-43.58,37.66,45.13,1.62,1.94c11,13.63,16.27,27.96,17.76,42.11,4.04,38.38-19.8,75.37-32.87,92.46Z"/><path class="cls-3" d="M601.02,50.28h-87.24v220.19h35.76v-80.63h51.16c47.08,0,75.19-26.03,75.19-69.63s-28.69-69.94-74.88-69.94ZM549.54,83.88h50.24c27.53,0,40.35,11.55,40.35,36.34s-13.3,36.03-40.66,36.03h-49.93v-72.36Z"/><polygon class="cls-3" points="765.3 216.7 719.98 102.79 683.87 102.79 747.71 256.14 712.91 339.98 748.38 339.98 847.34 102.79 811.23 102.79 765.3 216.7"/><path class="cls-3" d="M943.5,102.55c-6.76-1.78-12.36-2.54-18.73-2.54-13.81,0-25.52,4.77-32.94,13.26v-10.48h-32.37v167.67h34.22v-97.12c0-26.89,8.4-39.42,26.45-39.42,5.03,0,9.64.76,16.45,2.7l2.07.59,6.63-34.2-1.79-.47Z"/><path class="cls-3" d="M1023.08,98.16c-45.91,0-77.97,36.38-77.97,88.47s31.46,88.47,78.28,88.47c32.09,0,56.84-14.57,71.56-42.13l.84-1.57-26.66-17.89-1.08,1.74c-13.29,21.44-25.05,29.03-44.97,29.03-24.06,0-41.65-19.11-43.35-46.72h119.46v-14.64c0-50.7-30.59-84.77-76.12-84.77ZM980.35,170.45c1.57-23.41,19.98-41.47,42.73-41.47s40.09,16.2,42.08,41.47h-84.81Z"/><path class="cls-3" d="M1170.88,90.85c0-8.35,3.65-11.91,12.22-11.91h31.67v-31.75h-35.06c-26.57,0-43.07,15.31-43.07,39.95v15.66h-29.03v31.12h29.03v136.54h34.23v-136.54h43.89v-31.12h-43.89v-11.95Z"/><rect class="cls-3" x="1232.05" y="47.2" width="34.19" height="223.26"/><polygon class="cls-3" points="1413.33 102.79 1367.41 216.7 1322.09 102.79 1285.97 102.79 1349.81 256.14 1315.01 339.98 1350.48 339.98 1449.44 102.79 1413.33 102.79"/></svg>
